<svg xmlns="http://www.w3.org/2000/svg" width="1600" height="900" viewBox="0 0 1600 900" role="img" aria-label="Family Fitness">
  <defs>
    <linearGradient id="bg" x1="0" y1="0" x2="1" y2="1">
      <stop offset="0" stop-color="#0d0f0f"/><stop offset="1" stop-color="#171a1a"/>
    </linearGradient>
    <radialGradient id="glow" cx="30%" cy="22%" r="75%">
      <stop offset="0" stop-color="#34c2ab" stop-opacity="0.22"/>
      <stop offset="0.55" stop-color="#0e9e8a" stop-opacity="0.06"/>
      <stop offset="1" stop-color="#0a0a0a" stop-opacity="0"/>
    </radialGradient>
    <pattern id="grid" width="46" height="46" patternUnits="userSpaceOnUse">
      <path d="M46 0H0V46" fill="none" stroke="#ffffff" stroke-opacity="0.04" stroke-width="1"/>
    </pattern>
  </defs>
  <rect width="1600" height="900" fill="url(#bg)"/>
  <rect width="1600" height="900" fill="url(#grid)"/>
  <rect width="1600" height="900" fill="url(#glow)"/>
  <g transform="translate(927.9999999999999,162) scale(35.55555555555556)" stroke="#34c2ab" stroke-opacity="0.1" stroke-width="1.6" fill="none" stroke-linecap="round" stroke-linejoin="round"><path d="M6 5v14M3 8v8M18 5v14M21 8v8M6 12h12"/></g>
  <g transform="translate(64,468) scale(22.857142857142858)" stroke="#9aa0a3" stroke-opacity="0.07" stroke-width="1.6" fill="none" stroke-linecap="round" stroke-linejoin="round"><path d="M6 5v14M3 8v8M18 5v14M21 8v8M6 12h12"/></g>
  <g stroke="#34c2ab" stroke-opacity="0.10" stroke-width="2" fill="none">
    <path d="M0 765 L1600 558"/><path d="M0 855 L1600 648"/>
  </g>
</svg>